# xmcd
#
# Track frame offsets:
#	150
#	13810
#	25262
#	38862
#	51750
#	63267
#	74847
#	87547
#	99697
#	109290
#	122287
#	132572
#	145517
#	157547
#
# Disc length: 2326 seconds
#
# Revision: 0
# Processed by: cddbd v1.5.2PL0 Copyright (c) Steve Scherf et al.
# Submitted via: EasyCDDAExtractor 9.0.0.1
#
DISCID=bf09140e
DTITLE=Mick Flavin - Irish Giants Of Country
DYEAR=1999
DGENRE=Country
TTITLE0=Jennifer Johnson And Me
TTITLE1=Travellin' Light
TTITLE2=If You Remember Me
TTITLE3=The Old School Yard
TTITLE4=Lady Jane
TTITLE5=On The Wings Of Love
TTITLE6=The Rarest Flowers
TTITLE7=You're The Reason
TTITLE8=A Blue Blue Day
TTITLE9=Old Home In Mayo
TTITLE10=You Done Me Wrong
TTITLE11=Love Bug
TTITLE12=Way Down Deep
TTITLE13=Home To Donegal
EXTD=
EXTT0=
EXTT1=
EXTT2=
EXTT3=
EXTT4=
EXTT5=
EXTT6=
EXTT7=
EXTT8=
EXTT9=
EXTT10=
EXTT11=
EXTT12=
EXTT13=
PLAYORDER=
